<svg width="126" height="82" viewBox="0 0 126 82" fill="none" xmlns="http://www.w3.org/2000/svg">
<path fill-rule="evenodd" clip-rule="evenodd" d="M37.3322 64.8716H97.8337C99.8505 64.8716 101.5 66.4989 101.5 68.4884V75.3598C101.5 77.3494 99.8504 78.9766 97.8337 78.9766L37.3322 78.9797C35.3154 78.9797 33.6659 77.3524 33.6659 75.3629V68.4915C33.6659 66.5019 35.3155 64.8716 37.3322 64.8716ZM67.7681 3.02034C83.1964 3.02034 95.8195 15.4729 95.8195 30.6897V62.3417H39.7159V55.6546H48.1502V44.3982H45.8928V42.8459C45.8928 39.9693 44.715 37.2801 42.7394 35.3155C44.715 33.3478 45.8928 30.6617 45.8928 27.7851V26.2328H48.1502V14.9763H44.715C49.7903 7.76455 58.2434 3.02026 67.7671 3.02026L67.7681 3.02034ZM43.326 26.2297H26.7581V27.782C26.7581 31.1583 28.8605 34.0724 31.8365 35.3124C28.8604 36.5555 26.7581 39.4695 26.7581 42.8428V44.3951H43.3236V42.8428C43.3236 39.4664 41.2213 36.5523 38.2452 35.3124C41.2213 34.0693 43.3236 31.1552 43.3236 27.782L43.326 26.2297ZM24.5 46.9315V53.122H45.5833V46.9315H24.5ZM24.5 17.5063V23.6968H45.5833V17.5063H24.5ZM71.9407 19.3553L70.288 14.0519H65.2475L63.5916 19.3553C62.4202 19.6801 61.3025 20.1424 60.2608 20.7171L55.2869 18.1215L51.7219 21.6384L54.3561 26.5452C53.7704 27.5728 53.3049 28.6722 52.9757 29.8309L47.5997 31.4582V36.4307L52.9757 38.0611C53.305 39.2167 53.7736 40.3192 54.3561 41.3468L51.7251 46.2536L55.2901 49.7705L60.264 47.1718C61.3057 47.7497 62.4202 48.2088 63.5948 48.5336L65.2475 53.837H70.288L71.9407 48.5336C73.1122 48.2088 74.2298 47.7465 75.2715 47.1718L80.2454 49.7674L83.8104 46.2505L81.1794 41.3437C81.7619 40.3161 82.2305 39.2167 82.5598 38.058L87.9358 36.4275V31.4551L82.5598 29.8247C82.2305 28.6691 81.7619 27.5665 81.1794 26.5389L83.8104 21.6322L80.2454 18.1153L75.2715 20.7108C74.2298 20.1424 73.1153 19.6832 71.9407 19.3553ZM67.7678 25.6582C63.1263 25.6582 59.3651 29.3687 59.3651 33.9474C59.3651 38.5263 63.1264 42.2366 67.7678 42.2366C72.4094 42.2366 76.1705 38.5261 76.1705 33.9474C76.1673 29.3686 72.406 25.6582 67.7678 25.6582ZM91.5988 69.2135C90.0791 69.2135 88.8475 70.4285 88.8475 71.9277C88.8475 73.4269 90.0791 74.6419 91.5988 74.6419C93.1185 74.6419 94.3501 73.4269 94.3501 71.9277C94.3501 70.4285 93.1185 69.2135 91.5988 69.2135ZM81.1504 69.2135C79.6306 69.2135 78.399 70.4285 78.399 71.9277C78.399 73.4269 79.6306 74.6419 81.1504 74.6419C82.6701 74.6419 83.9017 73.4269 83.9017 71.9277C83.8985 70.4285 82.6669 69.2135 81.1504 69.2135ZM40.9379 73.1927H72.2889C72.9981 73.1927 73.5712 72.6243 73.5712 71.9278C73.5712 71.2281 72.9949 70.6628 72.2889 70.6628H40.9379C40.2287 70.6628 39.6556 71.2313 39.6556 71.9278C39.6556 72.6274 40.2287 73.1927 40.9379 73.1927Z" fill="#333333"/>
</svg>
