<svg width="126" height="82" viewBox="0 0 126 82" fill="none" xmlns="http://www.w3.org/2000/svg">
<path d="M49.5628 62.5H76.4378V67.875H49.5628V62.5ZM54.9378 73.25H71.0628V78.625H54.9378V73.25ZM63.0003 3.375C55.8726 3.375 49.0369 6.20646 43.9968 11.2465C38.9568 16.2865 36.1253 23.1223 36.1253 30.25C35.9436 34.1558 36.6918 38.049 38.3084 41.6093C39.925 45.1695 42.3637 48.295 45.4241 50.7288C48.1116 53.2281 49.5628 54.6525 49.5628 57.125H54.9378C54.9378 52.18 51.9547 49.4119 49.0522 46.7512C46.5404 44.8277 44.5385 42.3176 43.2219 39.4408C41.9053 36.564 41.3142 33.4083 41.5003 30.25C41.5003 24.5478 43.7655 19.0792 47.7975 15.0472C51.8296 11.0152 57.2982 8.75 63.0003 8.75C68.7025 8.75 74.1711 11.0152 78.2031 15.0472C82.2352 19.0792 84.5003 24.5478 84.5003 30.25C84.6834 33.4106 84.0881 36.5679 82.7668 39.4448C81.4454 42.3218 79.4383 44.8306 76.9216 46.7512C74.046 49.4387 71.0628 52.1262 71.0628 57.125H76.4378C76.4378 54.6525 77.8622 53.2281 80.5766 50.7019C83.6348 48.2723 86.0725 45.1514 87.689 41.5958C89.3056 38.0403 90.0549 34.1517 89.8753 30.25C89.8753 26.7207 89.1802 23.226 87.8296 19.9654C86.479 16.7048 84.4994 13.7421 82.0038 11.2465C79.5082 8.75093 76.5456 6.77133 73.2849 5.42074C70.0243 4.07014 66.5296 3.375 63.0003 3.375Z" fill="#333333"/>
</svg>
