<svg width="22" height="23" viewBox="0 0 22 23" fill="none" xmlns="http://www.w3.org/2000/svg">
<path d="M7.14967 2.33325H14.8497C17.783 2.33325 20.1663 4.71659 20.1663 7.64992V15.3499C20.1663 16.76 19.6062 18.1123 18.6091 19.1094C17.6121 20.1064 16.2597 20.6666 14.8497 20.6666H7.14967C4.21634 20.6666 1.83301 18.2833 1.83301 15.3499V7.64992C1.83301 6.23985 2.39316 4.88754 3.39022 3.89047C4.38729 2.8934 5.73961 2.33325 7.14967 2.33325ZM6.96634 4.16659C6.09113 4.16659 5.25176 4.51426 4.63289 5.13313C4.01402 5.752 3.66634 6.59137 3.66634 7.46659V15.5333C3.66634 17.3574 5.14217 18.8333 6.96634 18.8333H15.033C15.9082 18.8333 16.7476 18.4856 17.3665 17.8667C17.9853 17.2478 18.333 16.4085 18.333 15.5333V7.46659C18.333 5.64242 16.8572 4.16659 15.033 4.16659H6.96634ZM15.8122 5.54159C16.1161 5.54159 16.4075 5.66231 16.6224 5.87719C16.8373 6.09208 16.958 6.38352 16.958 6.68742C16.958 6.99131 16.8373 7.28276 16.6224 7.49765C16.4075 7.71253 16.1161 7.83325 15.8122 7.83325C15.5083 7.83325 15.2168 7.71253 15.0019 7.49765C14.7871 7.28276 14.6663 6.99131 14.6663 6.68742C14.6663 6.38352 14.7871 6.09208 15.0019 5.87719C15.2168 5.66231 15.5083 5.54159 15.8122 5.54159ZM10.9997 6.91659C12.2153 6.91659 13.381 7.39947 14.2406 8.25901C15.1001 9.11855 15.583 10.2843 15.583 11.4999C15.583 12.7155 15.1001 13.8813 14.2406 14.7408C13.381 15.6004 12.2153 16.0833 10.9997 16.0833C9.7841 16.0833 8.61831 15.6004 7.75877 14.7408C6.89923 13.8813 6.41634 12.7155 6.41634 11.4999C6.41634 10.2843 6.89923 9.11855 7.75877 8.25901C8.61831 7.39947 9.7841 6.91659 10.9997 6.91659ZM10.9997 8.74992C10.2703 8.74992 9.57086 9.03965 9.05513 9.55537C8.53941 10.0711 8.24967 10.7706 8.24967 11.4999C8.24967 12.2293 8.53941 12.9287 9.05513 13.4445C9.57086 13.9602 10.2703 14.2499 10.9997 14.2499C11.729 14.2499 12.4285 13.9602 12.9442 13.4445C13.4599 12.9287 13.7497 12.2293 13.7497 11.4999C13.7497 10.7706 13.4599 10.0711 12.9442 9.55537C12.4285 9.03965 11.729 8.74992 10.9997 8.74992Z" fill="white"/>
</svg>
