<svg width="20" height="21" viewBox="0 0 20 21" fill="none" xmlns="http://www.w3.org/2000/svg">
<g clip-path="url(#clip0_155_938)">
<path d="M20.236 2.16664H3.19372C3.00215 2.16398 2.81193 2.19909 2.63392 2.26995C2.45592 2.34081 2.29362 2.44604 2.15629 2.57963C2.01896 2.71323 1.90929 2.87256 1.83355 3.04855C1.7578 3.22453 1.71747 3.4137 1.71484 3.60528V20.8487C1.71747 21.0403 1.7578 21.2295 1.83355 21.4055C1.90929 21.5814 2.01896 21.7408 2.15629 21.8744C2.29362 22.008 2.45592 22.1132 2.63392 22.1841C2.81193 22.2549 3.00215 22.29 3.19372 22.2874H20.236C20.4275 22.29 20.6178 22.2549 20.7958 22.1841C20.9738 22.1132 21.1361 22.008 21.2734 21.8744C21.4107 21.7408 21.5204 21.5814 21.5961 21.4055C21.6719 21.2295 21.7122 21.0403 21.7148 20.8487V3.60528C21.7122 3.4137 21.6719 3.22453 21.5961 3.04855C21.5204 2.87256 21.4107 2.71323 21.2734 2.57963C21.1361 2.44604 20.9738 2.34081 20.7958 2.26995C20.6178 2.19909 20.4275 2.16398 20.236 2.16664ZM7.78124 19.0077H4.76313V9.95336H7.78124V19.0077ZM6.27219 8.68576C5.85595 8.68576 5.45677 8.52041 5.16244 8.22609C4.86812 7.93176 4.70277 7.53258 4.70277 7.11634C4.70277 6.70011 4.86812 6.30092 5.16244 6.0066C5.45677 5.71227 5.85595 5.54693 6.27219 5.54693C6.49321 5.52186 6.71703 5.54376 6.929 5.6112C7.14097 5.67863 7.33631 5.79007 7.50222 5.93824C7.66814 6.0864 7.80089 6.26793 7.89178 6.47095C7.98267 6.67397 8.02965 6.8939 8.02965 7.11634C8.02965 7.33878 7.98267 7.55871 7.89178 7.76173C7.80089 7.96475 7.66814 8.14629 7.50222 8.29445C7.33631 8.44261 7.14097 8.55406 6.929 8.62149C6.71703 8.68892 6.49321 8.71082 6.27219 8.68576ZM18.6666 19.0077H15.6484V14.1485C15.6484 12.9312 15.2158 12.1365 14.1193 12.1365C13.7799 12.1389 13.4494 12.2454 13.1724 12.4415C12.8954 12.6375 12.6852 12.9138 12.57 13.233C12.4912 13.4695 12.4571 13.7185 12.4694 13.9674V18.9976H9.45126V9.9433H12.4694V11.221C12.7435 10.7452 13.1423 10.3533 13.6227 10.0874C14.1031 9.82146 14.647 9.69165 15.1957 9.71192C17.2078 9.71192 18.6666 11.0097 18.6666 13.7964V19.0077Z" fill="white"/>
</g>
<defs>
<clipPath id="clip0_155_938">
<rect width="20" height="20" fill="white" transform="translate(0 0.5)"/>
</clipPath>
</defs>
</svg>
