<svg width="126" height="82" viewBox="0 0 126 82" fill="none" xmlns="http://www.w3.org/2000/svg">
<path d="M81.9972 10H67.77C66.445 10 65.1697 10.4842 64.1925 11.3558L47.9116 25.8817C47.895 25.8979 47.8784 25.9302 47.8619 25.9463C45.1125 28.4641 45.1622 32.483 47.5141 34.9847C49.6175 37.2281 54.0397 37.8253 56.8056 35.4205C56.8222 35.4043 56.8553 35.4043 56.8719 35.3882L70.1053 23.5737C71.1819 22.6215 72.8713 22.686 73.8484 23.7351C74.8422 24.7842 74.7594 26.4144 73.6828 27.3828L69.36 31.2402L93.475 50.3177C93.9553 50.705 94.3859 51.1247 94.7834 51.5604V20.3296L85.7403 11.5172C84.7631 10.5488 83.405 10 81.9972 10ZM100.1 20.3619V56.4993C100.1 59.3561 102.468 61.6641 105.4 61.6641H116V20.3619H100.1ZM108.05 56.4993C106.593 56.4993 105.4 55.3372 105.4 53.9169C105.4 52.4966 106.593 51.3345 108.05 51.3345C109.508 51.3345 110.7 52.4966 110.7 53.9169C110.7 55.3372 109.508 56.4993 108.05 56.4993ZM10 61.6479H20.6C23.5316 61.6479 25.9 59.3399 25.9 56.4831V20.3619H10V61.6479ZM17.95 51.3345C19.4075 51.3345 20.6 52.4966 20.6 53.9169C20.6 55.3372 19.4075 56.4993 17.95 56.4993C16.4925 56.4993 15.3 55.3372 15.3 53.9169C15.3 52.4804 16.4925 51.3345 17.95 51.3345ZM90.1459 54.3365L65.4181 34.7749L60.4494 39.2134C55.5303 43.5873 47.9944 43.1677 43.6053 38.5032C39.15 33.7581 39.4978 26.4144 44.3341 22.0888L57.8822 10H44.0028C42.595 10 41.2534 10.5488 40.2597 11.5172L31.2 20.3296V56.467H34.2309L49.22 69.6856C53.7581 73.2849 60.4328 72.607 64.1263 68.1846L64.1594 68.1523L67.1241 70.654C69.7575 72.7522 73.6497 72.3487 75.7863 69.7825L80.9869 63.5525L81.8813 64.2626C84.1503 66.0542 87.4959 65.7313 89.3344 63.504L90.9078 61.6157C92.7628 59.3883 92.415 56.1442 90.1459 54.3365Z" fill="#333333"/>
</svg>
