<svg width="126" height="82" viewBox="0 0 126 82" fill="none" xmlns="http://www.w3.org/2000/svg">
<path d="M62.7399 7.05029C54.214 7.05029 47.3025 15.1196 47.3025 25.0737C47.3025 31.9771 50.6269 37.9727 55.5086 41L49.8477 43.6236L34.7833 50.6104C33.328 51.3381 32.6016 52.5721 32.6016 54.3185V70.9094C32.7213 72.9837 33.9659 74.917 35.9838 74.9498H89.5775C91.8812 74.7495 93.0466 72.8939 93.0693 70.9094V54.3185C93.0693 52.5721 92.3429 51.3381 90.8877 50.6104L76.3687 43.6236L70.3348 40.765C75.0162 37.6695 78.1774 31.8035 78.1774 25.0737C78.1773 15.1196 71.2657 7.05029 62.7399 7.05029ZM37.8394 13.3883C34.1704 13.5276 31.2626 15.1152 29.0534 17.6449C26.6097 20.6907 25.4184 24.3068 25.3954 27.9041C25.5455 33.2236 27.9256 38.2594 32.1628 40.8934L15.2459 48.7548C14.0816 49.1914 13.5 50.21 13.5 51.8109V65.1263C13.5909 66.8922 14.5078 68.3763 16.227 68.4017H27.4705V54.3185C27.6565 50.5533 29.4246 47.5099 32.6016 46.0247L43.842 40.6773C44.7152 40.1679 45.5523 39.4754 46.3527 38.6022C41.7182 31.4515 41.0746 22.8867 44.0615 15.3537C42.1188 14.1648 39.9356 13.4007 37.8394 13.3883ZM88.0477 13.3883C85.6484 13.4385 83.431 14.3221 81.6095 15.5699C84.5149 23.1712 83.7135 31.7412 79.4248 38.3828C80.3708 39.4743 81.3556 40.3114 82.3744 40.8936L93.179 46.0247C96.4705 47.8299 98.1678 50.9003 98.2004 54.3186V68.4019H109.77C111.673 68.2377 112.484 66.72 112.5 65.1263V51.811C112.5 50.3556 111.918 49.3371 110.754 48.7548L94.0535 40.7838C98.3846 37.5904 100.559 32.8044 100.601 27.9041C100.486 24.0257 99.3015 20.4244 96.9435 17.6449C94.4795 14.972 91.4234 13.4166 88.0477 13.3883Z" fill="#333333"/>
</svg>
