<svg width="22" height="23" viewBox="0 0 22 23" fill="none" xmlns="http://www.w3.org/2000/svg">
<path fill-rule="evenodd" clip-rule="evenodd" d="M10.9997 4.3042C9.90792 4.3042 8.63467 4.32987 7.39351 4.3647L7.34309 4.36653C6.07992 4.40228 5.06059 4.4307 4.25759 4.56362C3.42067 4.70203 2.72584 4.96695 2.17034 5.53803C1.61301 6.11095 1.37009 6.81953 1.25551 7.66745C1.14551 8.48328 1.14551 9.51728 1.14551 10.8024V12.1994C1.14551 13.4828 1.14551 14.5168 1.25551 15.3335C1.36917 16.1814 1.61301 16.89 2.17034 17.4629C2.72584 18.0349 3.42067 18.2989 4.25759 18.4374C5.06059 18.5703 6.07992 18.5987 7.34309 18.6344L7.39351 18.6363C8.63559 18.6711 9.90792 18.6968 10.9997 18.6968C12.0914 18.6968 13.3647 18.6711 14.6058 18.6363L14.6563 18.6344C15.9194 18.5987 16.9388 18.5703 17.7418 18.4374C18.5787 18.2989 19.2735 18.034 19.829 17.4629C20.3863 16.89 20.6302 16.1814 20.7438 15.3335C20.8538 14.5177 20.8538 13.4837 20.8538 12.1985V10.8015C20.8538 9.51728 20.8538 8.48328 20.7438 7.66745C20.6302 6.81953 20.3863 6.11095 19.829 5.53803C19.2735 4.96603 18.5787 4.70203 17.7418 4.56362C16.9388 4.4307 15.9194 4.40228 14.6553 4.36653L14.6058 4.3647C13.4041 4.32822 12.2019 4.30806 10.9997 4.3042ZM9.96567 13.9301C9.86113 13.9898 9.74275 14.021 9.62235 14.0206C9.50196 14.0202 9.38378 13.9882 9.27965 13.9278C9.17551 13.8674 9.08907 13.7807 9.02897 13.6764C8.96887 13.572 8.93721 13.4538 8.93717 13.3334V9.6667C8.93721 9.5463 8.96887 9.42803 9.02897 9.32371C9.08907 9.21939 9.17551 9.13269 9.27965 9.07227C9.38378 9.01185 9.50196 8.97983 9.62235 8.97942C9.74275 8.97902 9.86113 9.01023 9.96567 9.06995L13.174 10.9033C13.2792 10.9634 13.3666 11.0503 13.4273 11.1551C13.4881 11.2599 13.5201 11.3789 13.5201 11.5C13.5201 11.6212 13.4881 11.7402 13.4273 11.845C13.3666 11.9498 13.2792 12.0366 13.174 12.0968L9.96567 13.9301Z" fill="white"/>
</svg>
